# xmcd
#
# Track frame offsets: 
#        150
#        9889
#        22164
#        46212
#        60117
#        74012
#        95233
#        109338
#        139388
#        161016
#        185488
#        210451
#        233791
#        266361
#
# Disc length: 3693 seconds
#
# Revision: 0
# Processed by: cddbd v1.5.2PL0 Copyright (c) Steve Scherf et al.
# Submitted via: ExactAudioCopy v0.95b4
#
DISCID=c40e6b0e
DTITLE=Stevie Ray Vaughan - Live At Carnegie Hall
DYEAR=1997
DGENRE=Blues
TTITLE0=Intro - Ken Dashow\\John Hammond
TTITLE1=Scuttle Buttin'
TTITLE2=Testifyin'
TTITLE3=Love Struck Baby
TTITLE4=Honey Bee
TTITLE5=Cold Shot
TTITLE6=Letter To My Girlfriend
TTITLE7=Dirty Pool
TTITLE8=Pride And Joy
TTITLE9=The Things That I Used To Do
TTITLE10=C.O.D.
TTITLE11=Iced Over
TTITLE12=Lenny
TTITLE13=Rude Mood
EXTD=
EXTT0=
EXTT1=
EXTT2=
EXTT3=
EXTT4=
EXTT5=
EXTT6=
EXTT7=
EXTT8=
EXTT9=
EXTT10=
EXTT11=
EXTT12=
EXTT13=
PLAYORDER=
